<!DOCTYPE svg PUBLIC "-//W3C//DTD SVG 1.1//EN" "http://www.w3.org/Graphics/SVG/1.1/DTD/svg11.dtd">
<!-- Uploaded to: SVG Repo, www.svgrepo.com, Transformed by: SVG Repo Mixer Tools -->
<svg width="800px" height="800px" viewBox="0 0 1024 1024" class="icon" version="1.1" xmlns="http://www.w3.org/2000/svg" fill="#ffffff" data-darkreader-inline-fill="" style="--darkreader-inline-fill: var(--darkreader-background-ffffff, #181a1b); --darkreader-inline-stroke: var(--darkreader-text-ffffff, #e8e6e3);" stroke="#ffffff" data-darkreader-inline-stroke="">
<g id="SVGRepo_bgCarrier" stroke-width="0"/>
<g id="SVGRepo_tracerCarrier" stroke-linecap="round" stroke-linejoin="round" stroke="#CCCCCC" stroke-width="114.68800000000002" data-darkreader-inline-stroke="" style="--darkreader-inline-stroke: var(--darkreader-text-cccccc, #c8c3bc);">
<path d="M512 569.2m-10 0a10 10 0 1 0 20 0 10 10 0 1 0-20 0Z" fill="#ffffff" data-darkreader-inline-fill="" style="--darkreader-inline-fill: var(--darkreader-text-ffffff, #e8e6e3);"/>
<path d="M611.8 617.1H406.5L108 390.3v20.1l293 222.7h216l299-223.3v-20L611.8 617.1z" fill="#ffffff" data-darkreader-inline-fill="" style="--darkreader-inline-fill: var(--darkreader-background-ffffff, #181a1b);"/>
<path d="M704 256.8v-94.5H320v94.5H64v605h896v-605H704z m-340-50.5h296v50.4H364v-50.4z m552 611.5H108V769h808v48.8z m0-64.9H108V300.8h808v452.1z" fill="#39393A" data-darkreader-inline-fill="" style="--darkreader-inline-fill: var(--darkreader-background-39393a, #2b2f31);"/>
</g>
<g id="SVGRepo_iconCarrier">
<path d="M512 569.2m-10 0a10 10 0 1 0 20 0 10 10 0 1 0-20 0Z" fill="#ffffff" data-darkreader-inline-fill="" style="--darkreader-inline-fill: var(--darkreader-text-ffffff, #e8e6e3);"/>
<path d="M611.8 617.1H406.5L108 390.3v20.1l293 222.7h216l299-223.3v-20L611.8 617.1z" fill="#ffffff" data-darkreader-inline-fill="" style="--darkreader-inline-fill: var(--darkreader-background-ffffff, #181a1b);"/>
<path d="M704 256.8v-94.5H320v94.5H64v605h896v-605H704z m-340-50.5h296v50.4H364v-50.4z m552 611.5H108V769h808v48.8z m0-64.9H108V300.8h808v452.1z" fill="#39393A" data-darkreader-inline-fill="" style="--darkreader-inline-fill: var(--darkreader-background-39393a, #2b2f31);"/>
</g>
</svg>